<?xml version="1.0" encoding="UTF-8" standalone="no"?>
<svg
   xmlns:dc="http://purl.org/dc/elements/1.1/"
   xmlns:cc="http://creativecommons.org/ns#"
   xmlns:rdf="http://www.w3.org/1999/02/22-rdf-syntax-ns#"
   xmlns:svg="http://www.w3.org/2000/svg"
   xmlns="http://www.w3.org/2000/svg"
   xmlns:sodipodi="http://sodipodi.sourceforge.net/DTD/sodipodi-0.dtd"
   xmlns:inkscape="http://www.inkscape.org/namespaces/inkscape"
   width="16"
   height="16"
   version="1.1"
   viewBox="0 0 4.2333 4.2333"
   id="svg16"
   sodipodi:docname="BulletServer.svg"
   inkscape:version="1.0.1 (3bc2e813f5, 2020-09-07)">
  <metadata
     id="metadata22">
    <rdf:RDF>
      <cc:Work
         rdf:about="">
        <dc:format>image/svg+xml</dc:format>
        <dc:type
           rdf:resource="http://purl.org/dc/dcmitype/StillImage" />
      </cc:Work>
    </rdf:RDF>
  </metadata>
  <defs
     id="defs20" />
  <sodipodi:namedview
     pagecolor="#ffffff"
     bordercolor="#666666"
     borderopacity="1"
     objecttolerance="10"
     gridtolerance="10"
     guidetolerance="10"
     inkscape:pageopacity="0"
     inkscape:pageshadow="2"
     inkscape:window-width="1371"
     inkscape:window-height="934"
     id="namedview18"
     showgrid="false"
     inkscape:zoom="51.875"
     inkscape:cx="6.6216867"
     inkscape:cy="7.9396934"
     inkscape:window-x="0"
     inkscape:window-y="0"
     inkscape:window-maximized="0"
     inkscape:current-layer="g14" />
  <g
     transform="translate(-32.97 9.4612)"
     fill="#a5b7f3"
     id="g14"
     style="fill:#cccccc">
    <path
       d="m33.499-9.1966c-0.16639 0-0.2645 0.098186-0.2645 0.26458v2.9104c0 0.16639 0.0981 0.26458 0.2645 0.26458h1.3229v-0.52917h-1.0583v-2.3812h2.3812v1.0583h0.52917v-1.3229c0-0.16639-0.09819-0.26458-0.26458-0.26458z"
       color="#000000"
       color-rendering="auto"
       dominant-baseline="auto"
       image-rendering="auto"
       shape-rendering="auto"
       solid-color="#000000"
       stop-color="#000000"
       style="font-feature-settings:normal;font-variant-alternates:normal;font-variant-caps:normal;font-variant-east-asian:normal;font-variant-ligatures:normal;font-variant-numeric:normal;font-variant-position:normal;font-variation-settings:normal;inline-size:0;isolation:auto;mix-blend-mode:normal;shape-margin:0;shape-padding:0;text-decoration-color:#000000;text-decoration-line:none;text-decoration-style:solid;text-indent:0;text-orientation:mixed;text-transform:none;white-space:normal;fill:#cccccc"
       id="path2" />
    <path
       d="m35.729-7.6091-0.08535 0.34136a0.75594 0.75595 0 0 0-0.10423 0.042233l-0.30061-0.18043-0.21379 0.2138 0.18072 0.30149a0.75594 0.75595 0 0 0-0.04309 0.10365l-0.34076 0.085061v0.30238l0.34135 0.085338a0.75594 0.75595 0 0 0 0.04223 0.10394l-0.18043 0.3009 0.2138 0.2138 0.30148-0.18072a0.75594 0.75595 0 0 0 0.10364 0.043095l0.08507 0.34077h0.30237l0.08534-0.34136a0.75594 0.75595 0 0 0 0.10394-0.042233l0.3009 0.18043 0.2138-0.2138-0.18072-0.30149a0.75594 0.75595 0 0 0 0.04312-0.10364l0.34076-0.085031v-0.30238l-0.34135-0.085349a0.75594 0.75595 0 0 0-0.04225-0.10394l0.18043-0.3009-0.2138-0.2138-0.30149 0.18072a0.75594 0.75595 0 0 0-0.10364-0.043106l-0.08503-0.34077h-0.30238zm0.15119 0.75596a0.30238 0.30238 0 0 1 0.30238 0.30238 0.30238 0.30238 0 0 1-0.30238 0.30238 0.30238 0.30238 0 0 1-0.30238-0.30238 0.30238 0.30238 0 0 1 0.30238-0.30238z"
       id="path4"
       style="fill:#cccccc" />
    <path
       transform="matrix(.26458 0 0 .26458 32.97 -9.4612)"
       d="m4 4v2h1.6328c0.71489-0.0080882 1.3672-0.45289 1.3672-1 0-0.54711-0.65229-0.99181-1.3672-1zm1 0.66602h0.54492c0.23829 0.0027326 0.45508 0.15162 0.45508 0.33398s-0.21678 0.33129-0.45508 0.33398h-0.54492z"
       id="path6"
       style="fill:#cccccc" />
    <path
       d="m35.086-8.4029v0.52917h0.43202c0.18915-0.00214 0.36174-0.11983 0.36174-0.26458 0-0.14476-0.17259-0.26242-0.36174-0.26458zm0.26458 0.17622h0.14418c0.06305 7.23e-4 0.12041 0.040116 0.12041 0.088367s-0.05736 0.087653-0.12041 0.088367h-0.14418z"
       id="path8"
       style="fill:#cccccc" />
    <path
       d="m34.028-7.6091v0.52917h0.43202c0.18915-0.00214 0.36174-0.11983 0.36174-0.26458 0-0.14476-0.17259-0.26242-0.36174-0.26458zm0.26458 0.17622h0.14418c0.06305 7.23e-4 0.12041 0.040116 0.12041 0.088367s-0.05736 0.087653-0.12041 0.088367h-0.14418z"
       id="path10"
       style="fill:#cccccc" />
    <rect
       x="34.129"
       y="-6.7144"
       width=".32716"
       height=".06258"
       stroke="#a5b7f3"
       stroke-width=".202"
       id="rect12"
       style="fill:#cccccc;stroke:#cccccc;stroke-opacity:1" />
  </g>
</svg>
